<?xml version="1.0" standalone="no"?><!DOCTYPE svg PUBLIC "-//W3C//DTD SVG 1.1//EN" "http://www.w3.org/Graphics/SVG/1.1/DTD/svg11.dtd"><svg t="1594368061231" class="icon" viewBox="0 0 1024 1024" version="1.1" xmlns="http://www.w3.org/2000/svg" p-id="1141" xmlns:xlink="http://www.w3.org/1999/xlink" width="200" height="200"><defs><style type="text/css"></style></defs><path d="M512 1024C230.4 1024 0 793.6 0 512S230.4 0 512 0s512 230.4 512 512-230.4 512-512 512z m0-938.666667C277.333333 85.333333 85.333333 277.333333 85.333333 512s192 426.666667 426.666667 426.666667 426.666667-192 426.666667-426.666667S746.666667 85.333333 512 85.333333z" p-id="1142" fill="#1296db"></path><path d="M680.533333 266.666667L405.333333 544c-14.933333 14.933333-40.533333 14.933333-55.466666 0l-4.266667-4.266667c-14.933333-14.933333-14.933333-40.533333 0-55.466666L618.666667 206.933333c17.066667-14.933333 42.666667-14.933333 57.6 0l4.266666 4.266667c14.933333 14.933333 14.933333 40.533333 0 55.466667z" p-id="1143" fill="#1296db"></path><path d="M618.666667 817.066667L343.466667 541.866667c-14.933333-14.933333-14.933333-40.533333 0-55.466667l4.266666-4.266667c14.933333-14.933333 40.533333-14.933333 55.466667 0l275.2 275.2c14.933333 14.933333 14.933333 40.533333 0 55.466667l-4.266667 4.266667c-12.8 14.933333-38.4 14.933333-55.466666 0z" p-id="1144" fill="#1296db"></path></svg>