<?xml version="1.0" standalone="no"?><!DOCTYPE svg PUBLIC "-//W3C//DTD SVG 1.1//EN" "http://www.w3.org/Graphics/SVG/1.1/DTD/svg11.dtd"><svg t="1593481429578" class="icon" viewBox="0 0 1024 1024" version="1.1" xmlns="http://www.w3.org/2000/svg" p-id="8377" xmlns:xlink="http://www.w3.org/1999/xlink" width="200" height="200"><defs><style type="text/css"></style></defs><path d="M59.35509 91.775938l0 867.88115 867.88115 0 0-867.88115L59.35509 91.775938zM897.309303 929.730151l-808.027277 0 0-808.027277 808.027277 0L897.309303 929.730151z" p-id="8378" fill="#8a8a8a"></path><path d="M833.963955 185.048222 152.627375 185.048222l0 681.336581 681.336581 0L833.963955 185.048222zM478.332197 836.457867 182.554311 836.457867l0-304.257185 295.777886 0L478.332197 836.457867zM478.332197 502.273746 182.554311 502.273746 182.554311 214.975158l295.777886 0L478.332197 502.273746zM804.037019 836.457867l-295.777886 0 0-304.257185 295.777886 0L804.037019 836.457867zM804.037019 502.273746l-295.777886 0L508.259133 214.975158l295.777886 0L804.037019 502.273746z" p-id="8379" fill="#8a8a8a"></path></svg>