<?xml version="1.0" standalone="no"?><!DOCTYPE svg PUBLIC "-//W3C//DTD SVG 1.1//EN" "http://www.w3.org/Graphics/SVG/1.1/DTD/svg11.dtd"><svg t="1594368077714" class="icon" viewBox="0 0 1024 1024" version="1.1" xmlns="http://www.w3.org/2000/svg" p-id="1329" xmlns:xlink="http://www.w3.org/1999/xlink" width="200" height="200"><defs><style type="text/css"></style></defs><path d="M0 512C0 230.4 230.4 0 512 0s512 230.4 512 512-230.4 512-512 512S0 793.6 0 512z m85.333333 0c0 234.666667 192 426.666667 426.666667 426.666667s426.666667-192 426.666667-426.666667S746.666667 85.333333 512 85.333333 85.333333 277.333333 85.333333 512z" p-id="1330" fill="#1296db"></path><path d="M343.466667 266.666667l275.2 277.333333c14.933333 14.933333 40.533333 14.933333 55.466666 0l4.266667-4.266667c14.933333-14.933333 14.933333-40.533333 0-55.466666L405.333333 206.933333c-17.066667-14.933333-42.666667-14.933333-57.6 0l-4.266666 4.266667c-14.933333 14.933333-14.933333 40.533333 0 55.466667z" p-id="1331" fill="#1296db"></path><path d="M405.333333 817.066667l275.2-275.2c14.933333-14.933333 14.933333-40.533333 0-55.466667l-4.266666-4.266667c-14.933333-14.933333-40.533333-14.933333-55.466667 0l-277.333333 275.2c-14.933333 14.933333-14.933333 40.533333 0 55.466667l4.266666 4.266667c14.933333 14.933333 40.533333 14.933333 57.6 0z" p-id="1332" fill="#1296db"></path></svg>