<?xml version="1.0" standalone="no"?><!DOCTYPE svg PUBLIC "-//W3C//DTD SVG 1.1//EN" "http://www.w3.org/Graphics/SVG/1.1/DTD/svg11.dtd"><svg t="1593481402600" class="icon" viewBox="0 0 1024 1024" version="1.1" xmlns="http://www.w3.org/2000/svg" p-id="7471" xmlns:xlink="http://www.w3.org/1999/xlink" width="200" height="200"><defs><style type="text/css"></style></defs><path d="M512 0C230.4 0 0 230.4 0 512s230.4 512 512 512 512-230.4 512-512S793.6 0 512 0z m0 957.44c-61.44 0-119.466667-11.946667-172.373333-34.133333l196.266666-196.266667c13.653333-13.653333 13.653333-34.133333 0-47.786667-13.653333-13.653333-34.133333-13.653333-47.786666 0L279.893333 889.173333c-49.493333-30.72-92.16-71.68-124.586666-119.466666l30.72-30.72 29.013333 29.013333c6.826667 6.826667 15.36 10.24 23.893333 10.24 8.533333 0 17.066667-3.413333 23.893334-10.24 13.653333-13.653333 13.653333-34.133333 0-47.786667l-29.013334-29.013333 35.84-35.84 11.946667 11.946667c6.826667 6.826667 15.36 10.24 23.893333 10.24 8.533333 0 17.066667-3.413333 23.893334-10.24 13.653333-13.653333 13.653333-34.133333 0-47.786667l-11.946667-11.946667 37.546667-37.546666 30.72 30.72c6.826667 6.826667 15.36 10.24 23.893333 10.24s17.066667-3.413333 23.893333-10.24c13.653333-13.653333 13.653333-34.133333 0-47.786667l-52.906666-52.906667c-6.826667-6.826667-15.36-10.24-23.893334-10.24-8.533333 0-18.773333 3.413333-25.6 10.24L165.546667 665.6h-1.706667v1.706667l-46.08 46.08c-34.133333-59.733333-51.2-128-51.2-201.386667C66.56 266.24 266.24 66.56 512 66.56S957.44 266.24 957.44 512 757.76 957.44 512 957.44z" fill="#8a8a8a" p-id="7472"></path><path d="M725.333333 667.306667L372.053333 312.32c-3.413333-3.413333-8.533333-3.413333-11.946666 0l-61.44 61.44c-3.413333 3.413333-3.413333 8.533333 0 11.946667l353.28 354.986666c3.413333 3.413333 8.533333 3.413333 11.946666 0l61.44-61.44c3.413333-3.413333 3.413333-8.533333 0-11.946666zM773.12 713.386667l-25.6-25.6c-3.413333-3.413333-8.533333-3.413333-11.946667 0l-61.44 61.44c-3.413333 3.413333-3.413333 8.533333 0 11.946666l25.6 25.6c1.706667 1.706667 1.706667 1.706667 3.413334 1.706667l85.333333 23.893333c6.826667 1.706667 11.946667-3.413333 10.24-10.24l-23.893333-85.333333c0-1.706667 0-1.706667-1.706667-3.413333zM353.28 291.84l-22.186667-22.186667c-3.413333-3.413333-8.533333-3.413333-11.946666 0l-61.44 61.44c-3.413333 3.413333-3.413333 8.533333 0 11.946667l22.186666 22.186667c3.413333 3.413333 8.533333 3.413333 11.946667 0l61.44-61.44c3.413333-3.413333 3.413333-8.533333 0-11.946667zM696.32 267.946667c-17.066667-17.066667-40.96-27.306667-66.56-27.306667s-49.493333 8.533333-66.56 27.306667l-40.96 40.96s-1.706667 0-1.706667 1.706666c0 0 0 1.706667-1.706666 1.706667l-34.133334 34.133333c-13.653333 13.653333-13.653333 34.133333 0 47.786667 13.653333 13.653333 34.133333 13.653333 47.786667 0l11.946667-11.946667 29.013333 29.013334c6.826667 6.826667 15.36 10.24 23.893333 10.24s17.066667-3.413333 23.893334-10.24c13.653333-13.653333 13.653333-34.133333 0-47.786667l-29.013334-29.013333 18.773334-18.773334c10.24-10.24 29.013333-10.24 39.253333 0l83.626667 83.626667c10.24 10.24 10.24 29.013333 0 39.253333L657.066667 512c-13.653333 13.653333-13.653333 34.133333 0 47.786667 6.826667 6.826667 15.36 10.24 23.893333 10.24s17.066667-3.413333 23.893333-10.24l75.093334-75.093334c37.546667-37.546667 37.546667-97.28 0-133.12l-83.626667-83.626666z" fill="#8a8a8a" p-id="7473"></path></svg>