<?xml version="1.0" standalone="no"?><!DOCTYPE svg PUBLIC "-//W3C//DTD SVG 1.1//EN" "http://www.w3.org/Graphics/SVG/1.1/DTD/svg11.dtd"><svg t="1593666849651" class="icon" viewBox="0 0 1024 1024" version="1.1" xmlns="http://www.w3.org/2000/svg" p-id="3630" xmlns:xlink="http://www.w3.org/1999/xlink" width="200" height="200"><defs><style type="text/css"></style></defs><path d="M723.843386 141.951323c61.765079 18.782363 118.834568 36.842328 170.847266 53.457496l0 293.293827c-5.779189 130.031746-48.761905 232.251146-128.586949 306.297002-79.825044 74.045855-164.345679 122.446561-253.561905 144.840917-89.216226-22.394356-173.736861-70.795062-253.561905-144.840917s-122.80776-176.265256-128.586949-306.297002L130.392945 195.408818c52.012698-16.615168 108.720988-34.313933 170.847266-53.457496s132.198942-37.564727 211.301587-56.34709C591.644444 104.386596 662.078307 123.168959 723.843386 141.951323zM481.839859 359.754497l9.752381 207.689594c0.722399 2.528395 2.167196 4.334392 4.695591 4.695591l32.869136 0c2.528395-0.722399 4.334392-2.167196 4.695591-4.695591l9.752381-207.689594c0-5.05679-2.889594-7.946384-8.668783-8.668783l-44.427513 0C484.729453 351.808113 481.839859 354.697707 481.839859 359.754497zM534.936155 665.329101c5.779189-6.140388 8.668783-13.725573 8.668783-22.755556 0-9.029982-2.889594-16.253968-8.668783-22.033157-5.779189-5.779189-13.003175-8.668783-22.033157-8.668783-9.029982 0-16.253968 2.889594-22.033157 8.668783-5.779189 5.779189-8.668783 13.003175-8.668783 22.033157 0 9.029982 2.889594 16.615168 8.668783 22.755556 5.779189 6.140388 13.003175 9.029982 22.033157 9.029982C521.571781 674.359083 528.795767 671.469489 534.936155 665.329101z" p-id="3631" fill="#ffffff"></path></svg>